<svg width="91" height="32" viewBox="0 0 91 32" fill="none" xmlns="http://www.w3.org/2000/svg">
<path d="M34.4167 16.3242C34.8577 15.716 35.4583 15.2218 36.2185 14.8417C36.994 14.4463 37.8531 14.2487 38.7958 14.2487C39.9058 14.2487 40.9094 14.5148 41.8065 15.0469C42.7036 15.5791 43.4107 16.3394 43.9276 17.3277C44.4446 18.3009 44.7031 19.4185 44.7031 20.6805C44.7031 21.9426 44.4446 23.0754 43.9276 24.0789C43.4107 25.0673 42.696 25.8427 41.7837 26.4053C40.8866 26.9527 39.8906 27.2264 38.7958 27.2264C37.8227 27.2264 36.956 27.0364 36.1957 26.6562C35.4507 26.2761 34.8577 25.7895 34.4167 25.1965V27.0211H31.8166V10.1432H34.4167V16.3242ZM42.0574 20.6805C42.0574 19.8138 41.8749 19.0688 41.51 18.4453C41.1603 17.8067 40.6889 17.3277 40.0959 17.0084C39.5181 16.6739 38.8947 16.5067 38.2256 16.5067C37.5718 16.5067 36.9484 16.6739 36.3554 17.0084C35.7776 17.343 35.3062 17.8295 34.9413 18.4681C34.5916 19.1068 34.4167 19.8594 34.4167 20.7261C34.4167 21.5928 34.5916 22.3531 34.9413 23.0069C35.3062 23.6456 35.7776 24.1321 36.3554 24.4667C36.9484 24.8012 37.5718 24.9684 38.2256 24.9684C38.8947 24.9684 39.5181 24.8012 40.0959 24.4667C40.6889 24.1169 41.1603 23.6152 41.51 22.9613C41.8749 22.3075 42.0574 21.5472 42.0574 20.6805Z" fill="#343A40"/>
<path d="M46.4077 20.6805C46.4077 19.4185 46.6661 18.3009 47.1831 17.3277C47.7153 16.3546 48.43 15.6019 49.3271 15.0698C50.2394 14.5224 51.243 14.2487 52.3377 14.2487C53.3261 14.2487 54.1852 14.4463 54.915 14.8417C55.6601 15.2218 56.2531 15.7008 56.6941 16.2786V14.4539H59.317V27.0211H56.6941V25.1509C56.2531 25.7439 55.6525 26.2381 54.8922 26.6334C54.132 27.0288 53.2653 27.2264 52.2921 27.2264C51.2125 27.2264 50.2242 26.9527 49.3271 26.4053C48.43 25.8427 47.7153 25.0673 47.1831 24.0789C46.6661 23.0754 46.4077 21.9426 46.4077 20.6805ZM56.6941 20.7261C56.6941 19.8594 56.5116 19.1068 56.1467 18.4681C55.797 17.8295 55.3332 17.343 54.7554 17.0084C54.1776 16.6739 53.5542 16.5067 52.8851 16.5067C52.2161 16.5067 51.5927 16.6739 51.0149 17.0084C50.4371 17.3277 49.9657 17.8067 49.6008 18.4453C49.2511 19.0688 49.0762 19.8138 49.0762 20.6805C49.0762 21.5472 49.2511 22.3075 49.6008 22.9613C49.9657 23.6152 50.4371 24.1169 51.0149 24.4667C51.6079 24.8012 52.2313 24.9684 52.8851 24.9684C53.5542 24.9684 54.1776 24.8012 54.7554 24.4667C55.3332 24.1321 55.797 23.6456 56.1467 23.0069C56.5116 22.3531 56.6941 21.5928 56.6941 20.7261Z" fill="#343A40"/>
<path d="M67.2937 27.2264C66.3054 27.2264 65.4159 27.0516 64.6252 26.7018C63.8497 26.3369 63.2339 25.8503 62.7777 25.2421C62.3216 24.6187 62.0783 23.9269 62.0479 23.1666H64.7392C64.7848 23.6988 65.0357 24.1473 65.4919 24.5123C65.9633 24.862 66.5487 25.0369 67.2481 25.0369C67.978 25.0369 68.5406 24.9 68.9359 24.6263C69.3464 24.3374 69.5517 23.9725 69.5517 23.5315C69.5517 23.0602 69.3236 22.7104 68.8675 22.4824C68.4265 22.2543 67.7195 22.0034 66.7463 21.7297C65.8036 21.4712 65.0357 21.2203 64.4427 20.977C63.8497 20.7337 63.3327 20.3612 62.8918 19.8594C62.466 19.3577 62.2532 18.6962 62.2532 17.8751C62.2532 17.2061 62.4508 16.5979 62.8462 16.0505C63.2415 15.4879 63.8041 15.0469 64.534 14.7276C65.279 14.4083 66.1305 14.2487 67.0885 14.2487C68.5178 14.2487 69.6658 14.6136 70.5325 15.3434C71.4144 16.0581 71.8857 17.0388 71.9466 18.2857H69.3464C69.3008 17.7231 69.0728 17.2745 68.6622 16.94C68.2517 16.6055 67.6967 16.4382 66.9972 16.4382C66.313 16.4382 65.7884 16.5675 65.4235 16.826C65.0585 17.0845 64.8761 17.4266 64.8761 17.8523C64.8761 18.1868 64.9977 18.4681 65.241 18.6962C65.4843 18.9243 65.7808 19.1068 66.1305 19.2436C66.4802 19.3653 66.9972 19.5249 67.6815 19.7226C68.5938 19.9659 69.3388 20.2168 69.9166 20.4753C70.5097 20.7185 71.019 21.0835 71.4448 21.57C71.8705 22.0566 72.091 22.7028 72.1062 23.5087C72.1062 24.2234 71.9086 24.862 71.5132 25.4246C71.1179 25.9872 70.5553 26.4281 69.8254 26.7475C69.1108 27.0668 68.2669 27.2264 67.2937 27.2264Z" fill="#343A40"/>
<path d="M76.2386 12.789C75.7672 12.789 75.3719 12.6293 75.0525 12.31C74.7332 11.9907 74.5736 11.5953 74.5736 11.124C74.5736 10.6526 74.7332 10.2573 75.0525 9.93795C75.3719 9.61864 75.7672 9.45898 76.2386 9.45898C76.6947 9.45898 77.0825 9.61864 77.4018 9.93795C77.7211 10.2573 77.8807 10.6526 77.8807 11.124C77.8807 11.5953 77.7211 11.9907 77.4018 12.31C77.0825 12.6293 76.6947 12.789 76.2386 12.789ZM77.5158 14.4539V27.0211H74.9157V14.4539H77.5158Z" fill="#343A40"/>
<path d="M85.4911 27.2264C84.5028 27.2264 83.6133 27.0516 82.8226 26.7018C82.0471 26.3369 81.4313 25.8503 80.9751 25.2421C80.519 24.6187 80.2757 23.9269 80.2453 23.1666H82.9366C82.9823 23.6988 83.2331 24.1473 83.6893 24.5123C84.1607 24.862 84.7461 25.0369 85.4455 25.0369C86.1754 25.0369 86.738 24.9 87.1333 24.6263C87.5439 24.3374 87.7491 23.9725 87.7491 23.5315C87.7491 23.0602 87.521 22.7104 87.0649 22.4824C86.6239 22.2543 85.9169 22.0034 84.9437 21.7297C84.001 21.4712 83.2331 21.2203 82.6401 20.977C82.0471 20.7337 81.5301 20.3612 81.0892 19.8594C80.6634 19.3577 80.4506 18.6962 80.4506 17.8751C80.4506 17.2061 80.6482 16.5979 81.0436 16.0505C81.4389 15.4879 82.0015 15.0469 82.7314 14.7276C83.4764 14.4083 84.3279 14.2487 85.2859 14.2487C86.7152 14.2487 87.8632 14.6136 88.7299 15.3434C89.6118 16.0581 90.0831 17.0388 90.144 18.2857H87.5439C87.4982 17.7231 87.2702 17.2745 86.8596 16.94C86.4491 16.6055 85.8941 16.4382 85.1946 16.4382C84.5104 16.4382 83.9858 16.5675 83.6209 16.826C83.2559 17.0845 83.0735 17.4266 83.0735 17.8523C83.0735 18.1868 83.1951 18.4681 83.4384 18.6962C83.6817 18.9243 83.9782 19.1068 84.3279 19.2436C84.6776 19.3653 85.1946 19.5249 85.8789 19.7226C86.7912 19.9659 87.5362 20.2168 88.1141 20.4753C88.7071 20.7185 89.2164 21.0835 89.6422 21.57C90.0679 22.0566 90.2884 22.7028 90.3036 23.5087C90.3036 24.2234 90.106 24.862 89.7106 25.4246C89.3153 25.9872 88.7527 26.4281 88.0228 26.7475C87.3082 27.0668 86.4643 27.2264 85.4911 27.2264Z" fill="#343A40"/>
<path d="M0 4.67459V26.9362C0 27.532 0.205897 28.0898 0.558399 28.5318L6.93918 23.6958V12.1664V1.00442C6.93918 0.243492 6.12505 -0.240312 5.4567 0.123439L1.38897 2.33729C0.532869 2.80322 0 3.69991 0 4.67459Z" fill="#40C4FE"/>
<path d="M18.75 27.0116L6.93919 23.6958L0.558411 28.5317L0.574196 28.5513C0.90158 28.9537 1.35162 29.2575 1.87854 29.4028L10.9228 31.8968C11.8028 32.1394 12.7457 31.9483 13.4618 31.3822L18.1672 27.6625C18.4001 27.4783 18.5963 27.2575 18.75 27.0116Z" fill="#8C9FFF"/>
<path fill-rule="evenodd" clip-rule="evenodd" d="M18.5004 15.1628L12.4097 19.162L12.245 31.9447C12.6835 31.8573 13.1014 31.6674 13.4619 31.3824L18.1672 27.6626C18.781 27.1774 19.1391 26.4379 19.1391 25.6554V16.8541C19.1391 16.2127 18.9009 15.6176 18.5004 15.1628Z" fill="#6F97FF"/>
<path fill-rule="evenodd" clip-rule="evenodd" d="M12.2451 31.9445C12.6835 31.8571 13.1014 31.6672 13.4619 31.3822L18.1672 27.6625C18.4002 27.4783 18.5963 27.2575 18.75 27.0116L12.3318 25.2097L12.2451 31.9445Z" fill="#90BCFF"/>
<path fill-rule="evenodd" clip-rule="evenodd" d="M6.93918 12.1665L17.1176 14.3525C17.6697 14.471 18.1479 14.7626 18.5004 15.1629L12.4097 19.162L0 16.286L6.93918 12.1665Z" fill="#62F8EF"/>
</svg>
