<svg width="35" height="22" viewBox="0 0 35 22" fill="none" xmlns="http://www.w3.org/2000/svg">
<path fill-rule="evenodd" clip-rule="evenodd" d="M13.6196 14.2069C13.6196 18.667 10.9329 21.5386 6.11547 21.5386C4.38612 21.5386 2.7803 21.2026 1.54505 20.4999C0.124511 19.7057 0.124512 18.6976 0.124512 17.6589V2.2319C0.124512 1.13215 0.803899 0.582275 2.19355 0.582275C3.58321 0.582275 4.2626 1.13215 4.2626 2.2319V8.09722C5.03463 7.5779 6.05371 7.33351 7.2272 7.33351C10.9947 7.33351 13.6196 9.80794 13.6196 14.2069ZM4.2626 17.7811C4.78758 18.0866 5.43609 18.2393 6.14635 18.2393C8.15364 18.2393 9.38889 16.8952 9.38889 14.4819C9.38889 12.038 8.12275 10.6328 6.20812 10.6328C5.46697 10.6328 4.78758 10.8466 4.2626 11.2437V17.7811ZM20.9694 3.3011C20.9694 4.70633 19.9503 5.68389 18.5297 5.68389C17.1092 5.68389 16.0901 4.70633 16.0901 3.3011C16.0901 1.89586 17.1092 0.948858 18.5297 0.948858C19.9503 0.948858 20.9694 1.89586 20.9694 3.3011ZM20.5988 8.98313V19.8279C20.5988 20.9276 19.9194 21.4775 18.5297 21.4775C17.1401 21.4775 16.4607 20.9276 16.4607 19.8279V8.98313C16.4607 7.88338 17.1401 7.33351 18.5297 7.33351C19.9194 7.33351 20.5988 7.88338 20.5988 8.98313ZM32.7351 17.8117C33.8777 17.8117 34.2174 19.0031 34.2174 19.6751C34.2174 20.1028 34.063 20.5305 33.4763 20.8665C32.7969 21.2637 31.6234 21.5386 30.419 21.5386C28.1956 21.5386 26.8677 20.6527 26.1883 19.4307C25.5707 18.331 25.5089 17.0174 25.5089 15.6122V11.0299H24.4281C23.3163 11.0299 22.7605 10.48 22.7605 9.31917C22.7605 8.15832 23.3163 7.60845 24.4281 7.60845H25.5089V4.92017C25.5089 3.82042 26.1883 3.27055 27.5779 3.27055C28.9676 3.27055 29.647 3.82042 29.647 4.92017V7.60845H32.241C33.3527 7.60845 33.9086 8.15832 33.9086 9.31917C33.9086 10.48 33.3527 11.0299 32.241 11.0299H29.647V15.6122C29.647 16.162 29.647 16.9563 29.9249 17.4756C30.1411 17.9033 30.5425 18.0866 31.0675 18.0866C31.4072 18.0866 31.7469 17.995 32.0248 17.9339C32.2719 17.8728 32.4881 17.8117 32.7351 17.8117Z" fill="#444444"/>
</svg>
